<?xml version="1.0" encoding="UTF-8"?>
<svg xmlns="http://www.w3.org/2000/svg" xmlns:xlink="http://www.w3.org/1999/xlink" width="200px" height="72px" viewBox="0 0 200 72" version="1.1">
<g id="surface1">
<path style=" stroke:none;fill-rule:nonzero;fill:rgb(0%,0%,0%);fill-opacity:1;" d="M 99.613281 22.261719 L 109.125 21.664062 C 109.332031 23.210938 109.753906 24.386719 110.382812 25.195312 C 111.417969 26.503906 112.886719 27.160156 114.796875 27.160156 C 116.222656 27.160156 117.324219 26.828125 118.097656 26.15625 C 118.816406 25.597656 119.242188 24.738281 119.253906 23.828125 C 119.242188 22.953125 118.84375 22.128906 118.167969 21.578125 C 117.445312 20.914062 115.738281 20.289062 113.050781 19.699219 C 108.664062 18.714844 105.539062 17.402344 103.671875 15.765625 C 101.828125 14.222656 100.789062 11.925781 100.84375 9.519531 C 100.851562 7.84375 101.355469 6.207031 102.292969 4.816406 C 103.363281 3.25 104.871094 2.035156 106.632812 1.328125 C 108.5625 0.480469 111.214844 0.0585938 114.589844 0.0585938 C 118.726562 0.0585938 121.878906 0.828125 124.046875 2.367188 C 126.21875 3.90625 127.511719 6.351562 127.921875 9.707031 L 118.5 10.253906 C 118.257812 8.808594 117.730469 7.75 116.921875 7.078125 C 116.109375 6.40625 115 6.074219 113.59375 6.074219 C 112.433594 6.074219 111.554688 6.324219 110.96875 6.816406 C 110.410156 7.25 110.082031 7.917969 110.085938 8.628906 C 110.105469 9.175781 110.371094 9.6875 110.8125 10.015625 C 111.28125 10.445312 112.398438 10.84375 114.164062 11.210938 C 118.535156 12.152344 121.671875 13.105469 123.570312 14.070312 C 125.472656 15.035156 126.847656 16.230469 127.695312 17.65625 C 128.5625 19.101562 129.007812 20.761719 128.984375 22.449219 C 128.996094 24.488281 128.398438 26.488281 127.269531 28.1875 C 126.089844 29.960938 124.417969 31.34375 122.457031 32.167969 C 120.394531 33.074219 117.796875 33.527344 114.664062 33.527344 C 109.164062 33.527344 105.351562 32.46875 103.230469 30.347656 C 101.113281 28.230469 99.90625 25.535156 99.613281 22.261719 Z M 2.269531 32.984375 L 2.269531 0.605469 L 18.929688 0.605469 C 22.019531 0.605469 24.382812 0.867188 26.015625 1.394531 C 27.621094 1.910156 29.011719 2.945312 29.964844 4.34375 C 31 5.890625 31.527344 7.722656 31.472656 9.585938 C 31.515625 11.210938 31.113281 12.816406 30.316406 14.234375 C 29.546875 15.546875 28.460938 16.640625 27.15625 17.421875 C 26.0625 18.027344 24.878906 18.457031 23.648438 18.703125 C 24.566406 18.972656 25.445312 19.375 26.25 19.894531 C 26.847656 20.390625 27.386719 20.957031 27.855469 21.578125 C 28.382812 22.199219 28.847656 22.867188 29.25 23.574219 L 34.089844 32.984375 L 22.789062 32.984375 L 17.453125 23.078125 C 16.773438 21.796875 16.171875 20.964844 15.644531 20.582031 C 14.921875 20.082031 14.066406 19.820312 13.191406 19.832031 L 12.300781 19.832031 L 12.300781 32.984375 Z M 12.300781 13.714844 L 16.523438 13.714844 C 17.417969 13.648438 18.304688 13.5 19.171875 13.273438 C 19.820312 13.148438 20.398438 12.785156 20.792969 12.257812 C 21.210938 11.722656 21.433594 11.0625 21.421875 10.382812 C 21.480469 9.46875 21.113281 8.582031 20.429688 7.976562 C 19.769531 7.414062 18.523438 7.136719 16.699219 7.136719 L 12.300781 7.136719 Z M 0 60.691406 L 9.511719 60.097656 C 9.71875 61.644531 10.136719 62.820312 10.769531 63.628906 C 11.789062 64.941406 13.265625 65.59375 15.195312 65.59375 C 16.621094 65.59375 17.71875 65.257812 18.492188 64.589844 C 19.210938 64.027344 19.636719 63.171875 19.652344 62.257812 C 19.636719 61.382812 19.242188 60.5625 18.566406 60.007812 C 17.84375 59.347656 16.136719 58.722656 13.445312 58.132812 C 9.0625 57.144531 5.933594 55.832031 4.066406 54.203125 C 2.222656 52.65625 1.183594 50.355469 1.242188 47.953125 C 1.25 46.273438 1.753906 44.636719 2.6875 43.246094 C 3.757812 41.679688 5.269531 40.464844 7.027344 39.757812 C 8.957031 38.910156 11.613281 38.488281 14.988281 38.488281 C 19.121094 38.488281 22.273438 39.257812 24.445312 40.796875 C 26.613281 42.335938 27.90625 44.78125 28.320312 48.136719 L 18.914062 48.691406 C 18.671875 47.242188 18.144531 46.183594 17.335938 45.507812 C 16.523438 44.835938 15.417969 44.503906 14.011719 44.515625 C 12.851562 44.515625 11.976562 44.757812 11.386719 45.242188 C 10.828125 45.671875 10.5 46.34375 10.503906 47.050781 C 10.523438 47.601562 10.789062 48.113281 11.230469 48.445312 C 11.699219 48.871094 12.816406 49.269531 14.582031 49.636719 C 18.953125 50.574219 22.089844 51.527344 23.988281 52.492188 C 25.890625 53.460938 27.261719 54.65625 28.113281 56.082031 C 28.976562 57.527344 29.425781 59.1875 29.402344 60.871094 C 29.414062 62.914062 28.816406 64.914062 27.6875 66.613281 C 26.507812 68.382812 24.835938 69.769531 22.875 70.59375 C 20.8125 71.496094 18.214844 71.949219 15.082031 71.949219 C 9.582031 71.949219 5.769531 70.890625 3.648438 68.773438 C 1.53125 66.652344 0.3125 63.960938 0 60.691406 Z M 58.96875 58.152344 L 67.730469 60.804688 C 67.246094 63.027344 66.296875 65.125 64.945312 66.957031 C 63.71875 68.574219 62.101562 69.859375 60.246094 70.6875 C 58.367188 71.523438 55.980469 71.941406 53.082031 71.941406 C 49.566406 71.941406 46.691406 71.433594 44.464844 70.410156 C 42.234375 69.390625 40.304688 67.59375 38.675781 65.015625 C 37.054688 62.441406 36.246094 59.148438 36.25 55.132812 C 36.25 49.78125 37.671875 45.664062 40.515625 42.789062 C 43.363281 39.910156 47.390625 38.472656 52.601562 38.472656 C 56.679688 38.472656 59.882812 39.296875 62.210938 40.949219 C 64.542969 42.597656 66.273438 45.132812 67.40625 48.550781 L 58.582031 50.515625 C 58.371094 49.742188 58.046875 49.011719 57.609375 48.34375 C 57.074219 47.601562 56.371094 46.996094 55.558594 46.578125 C 54.714844 46.15625 53.785156 45.945312 52.84375 45.957031 C 50.578125 45.957031 48.84375 46.871094 47.636719 48.695312 C 46.71875 50.046875 46.261719 52.171875 46.265625 55.066406 C 46.265625 58.652344 46.8125 61.109375 47.902344 62.441406 C 48.992188 63.773438 50.519531 64.4375 52.492188 64.4375 C 54.402344 64.4375 55.847656 63.898438 56.832031 62.828125 C 57.816406 61.753906 58.527344 60.195312 58.96875 58.152344 Z M 75.429688 39.035156 L 85.425781 39.035156 L 85.425781 50.355469 L 96.351562 50.355469 L 96.351562 39.035156 L 106.390625 39.035156 L 106.390625 71.398438 L 96.351562 71.398438 L 96.351562 58.316406 L 85.425781 58.316406 L 85.425781 71.410156 L 75.429688 71.410156 Z M 112.613281 55.238281 C 112.613281 49.957031 114.085938 45.84375 117.027344 42.894531 C 119.96875 39.949219 124.070312 38.476562 129.328125 38.480469 C 134.710938 38.480469 138.859375 39.929688 141.769531 42.824219 C 144.683594 45.71875 146.144531 49.769531 146.152344 54.972656 C 146.152344 58.757812 145.515625 61.859375 144.242188 64.28125 C 143.003906 66.667969 141.082031 68.636719 138.726562 69.929688 C 136.3125 71.277344 133.316406 71.949219 129.730469 71.949219 C 126.085938 71.949219 123.070312 71.367188 120.6875 70.207031 C 118.238281 68.992188 116.214844 67.070312 114.875 64.6875 C 113.363281 62.171875 112.609375 59.023438 112.613281 55.238281 Z M 122.609375 55.285156 C 122.609375 58.554688 123.210938 60.902344 124.417969 62.328125 C 125.621094 63.753906 127.273438 64.464844 129.375 64.464844 C 131.523438 64.464844 133.183594 63.765625 134.363281 62.371094 C 135.539062 60.972656 136.128906 58.464844 136.128906 54.84375 C 136.128906 51.796875 135.511719 49.570312 134.28125 48.160156 C 133.050781 46.753906 131.386719 46.054688 129.28125 46.054688 C 127.429688 45.988281 125.648438 46.773438 124.445312 48.183594 C 123.222656 49.632812 122.609375 52 122.609375 55.285156 Z M 122.609375 55.285156 "/>
<path style=" stroke:none;fill-rule:nonzero;fill:rgb(0%,0%,0%);fill-opacity:1;" d="M 141.910156 55.238281 C 141.910156 49.957031 143.382812 45.84375 146.324219 42.894531 C 149.269531 39.949219 153.367188 38.476562 158.625 38.480469 C 164.011719 38.480469 168.164062 39.929688 171.074219 42.824219 C 173.984375 45.71875 175.441406 49.769531 175.441406 54.976562 C 175.441406 58.761719 174.804688 61.863281 173.535156 64.285156 C 172.292969 66.671875 170.375 68.636719 168.015625 69.933594 C 165.605469 71.28125 162.605469 71.953125 159.023438 71.953125 C 155.375 71.953125 152.359375 71.371094 149.980469 70.210938 C 147.53125 68.996094 145.503906 67.070312 144.160156 64.691406 C 142.660156 62.171875 141.910156 59.023438 141.910156 55.238281 Z M 151.910156 55.285156 C 151.910156 58.554688 152.515625 60.902344 153.71875 62.328125 C 154.925781 63.753906 156.582031 64.46875 158.683594 64.46875 C 160.832031 64.46875 162.496094 63.769531 163.671875 62.375 C 164.847656 60.976562 165.4375 58.46875 165.4375 54.847656 C 165.4375 51.800781 164.824219 49.570312 163.597656 48.164062 C 162.367188 46.757812 160.703125 46.058594 158.597656 46.058594 C 156.742188 45.988281 154.953125 46.769531 153.75 48.183594 C 152.519531 49.632812 151.910156 52 151.910156 55.285156 Z M 151.910156 55.285156 "/>
<path style=" stroke:none;fill-rule:nonzero;fill:rgb(0%,0%,0%);fill-opacity:1;" d="M 174.398438 39.035156 L 184.398438 39.035156 L 184.398438 63.429688 L 200 63.429688 L 200 71.394531 L 174.398438 71.394531 Z M 174.398438 39.035156 "/>
</g>
</svg>
